<svg id="Camada_1" data-name="Camada 1" xmlns="http://www.w3.org/2000/svg" width="16" height="15.85" viewBox="0 0 16 15.85"><defs><style>.cls-1{fill:#557086;}</style></defs><title>Champions</title><path class="cls-1" d="M5.65,2.64a12.1206,12.1206,0,0,0-1.9.6A10.3888,10.3888,0,0,1,5.22,1.77,8.6735,8.6735,0,0,1,4.7.51a9.35,9.35,0,0,1,2,.35A7.74,7.74,0,0,1,9.82,0,6.9994,6.9994,0,0,0,8.19,1.28a12.5614,12.5614,0,0,1,1.75.76,17.2165,17.2165,0,0,0-2.47.2,6.41,6.41,0,0,0-.76,1.92A8.3516,8.3516,0,0,1,5.65,2.64Z"/><path class="cls-1" d="M11.76,3.75A18.2839,18.2839,0,0,0,9.94,2.04a8.49,8.49,0,0,1,2.38.58,7.0043,7.0043,0,0,0,.47-1.25,7.8079,7.8079,0,0,1,.79,1.94,7.73,7.73,0,0,1,2,1.8A9.5954,9.5954,0,0,0,14,4.92a13.8667,13.8667,0,0,1,.19,2.17s-.71-1.17-1.39-2.17a10.441,10.441,0,0,0-2.24.33,17.3974,17.3974,0,0,0,1.2-1.53ZM13,9.4c.58-1,1.2-2.3,1.2-2.3a12.62,12.62,0,0,1,.21,2A9.8883,9.8883,0,0,0,16,8.52a6,6,0,0,1-1.46,2.11,14.5919,14.5919,0,0,1,.11,1.67s-.71-.32-1.3-.67a6.1794,6.1794,0,0,1-2,.81s.51-.8.93-1.58a6.8,6.8,0,0,1-1.51-1.47,9.5553,9.5553,0,0,0,2.29,0Z"/><path class="cls-1" d="M9,7.42c.88,1.09,1.77,2,1.77,2A16.1418,16.1418,0,0,1,8.12,8.8c-.59,1-1.24,2.05-1.24,2.05a11.849,11.849,0,0,1-.42-2.56s-.74-.26-2.09-.79a9,9,0,0,1,2.06-.9,9.349,9.349,0,0,1,.33-2.41S7.37,5.23,7.9,6.01a27.16,27.16,0,0,1,2.67-.73S9.68,6.4,8.95,7.42ZM1,11.55a3.9991,3.9991,0,0,1-.25-.51,8.78,8.78,0,0,1,.21-1.9A8.9463,8.9463,0,0,1,0,8.46v-.2a10.9055,10.9055,0,0,1,1.26-.34,5.3592,5.3592,0,0,1,.91-1.73,14.8669,14.8669,0,0,0,.19,1.49,8.5223,8.5223,0,0,1,2-.16A11.4372,11.4372,0,0,0,2.7,9.05a9.8217,9.8217,0,0,0,.68,1.79A15.2364,15.2364,0,0,1,2,9.92c-.25.3-.76,1.12-1.06,1.61Zm5.66,4.16-.32-.07a12.7053,12.7053,0,0,1-1.46-1.72,10.21,10.21,0,0,1-2.72-.62,8.0026,8.0026,0,0,0,2-.71,11.7724,11.7724,0,0,1-.73-1.74s1,.79,1.7,1.25a11.994,11.994,0,0,0,1.7-1.28,21.6237,21.6237,0,0,0-.32,2.19l1.61.91a10.4512,10.4512,0,0,1-1.65.09,8.4319,8.4319,0,0,0,.11,1.72Zm7-2.08a11.5291,11.5291,0,0,1-2.18.33s0-.73-.06-1.52A15.3176,15.3176,0,0,1,10,14.03a16.5469,16.5469,0,0,1-1.86-.13c.34.34.68.67,1,1a11.9827,11.9827,0,0,1-1.28.95h.26a8,8,0,0,0,5.4-2.21Z"/><path class="cls-1" d="M.1,6.49A11.7373,11.7373,0,0,1,1.38,5.15a4.7588,4.7588,0,0,0,.79,1s0-.69.08-1.77a15.3022,15.3022,0,0,1,1.5-1.13,9.774,9.774,0,0,0-1.26,0A10.622,10.622,0,0,1,3,1.52a8,8,0,0,0-2.94,5Z"/></svg>